<svg height="512" viewBox="0 0 256 256" width="512" xmlns="http://www.w3.org/2000/svg"><path d="m150.935 16.056a22.549 22.549 0 0 0 -16.061 6.694 28.027 28.027 0 0 0 -51.95 0 22.623 22.623 0 1 0 -16.062 38.55v18.635h84.073v-18.635a22.624 22.624 0 0 0 0-45.247z" fill="#ffe2e2"/><path d="m92.571 152.89v14.95h-10.65v8.66c-30.2 16.46-51.11 2.92-61-6.79a3.561 3.561 0 0 1 2.53-6.11c27.1.73 45.38-35.24 45.38-35.24l.25-.75a42.351 42.351 0 0 0 23.49 25.28z" fill="#b76c6c"/><path d="m138.821 79.93-1.62.6-70.34 22.86v10.78a41.629 41.629 0 0 0 2.22 13.44 42.351 42.351 0 0 0 23.49 25.28 41.663 41.663 0 0 0 15.56 3.31c.26.01.51.01.77.01a41.617 41.617 0 0 0 16.33-3.32 42.187 42.187 0 0 0 25.7-38.72v-34.24z" fill="#ffbb98"/><path d="m125.231 152.89v14.95h-32.66v-14.95a41.663 41.663 0 0 0 15.56 3.31c.26.01.51.01.77.01a41.617 41.617 0 0 0 16.33-3.32z" fill="#ffbb98"/><path d="m138.821 79.93-1.62.6-70.34 22.86v-23.46z" fill="#b76c6c"/><path d="m208.631 250.75h-155.07a8.412 8.412 0 0 1 -8.41-8.42v-.81a63.643 63.643 0 0 1 24.1-49.94c1-.79 2.01-1.54 3.04-2.27a65.185 65.185 0 0 1 9.63-5.57v-15.9h53.96v15.9a64.574 64.574 0 0 1 9.62 5.57c1.04.73 2.06 1.48 3.04 2.27a63.776 63.776 0 0 1 21.33 31.28h26.27v15.4a12.494 12.494 0 0 0 12.49 12.49z" fill="#ffe2e2"/><path d="m213.241 173.13a15.731 15.731 0 0 0 7.88 26.52v23.21h-24.98v-62.64a4.31 4.31 0 0 1 4.31-4.31h16.37a4.3 4.3 0 0 1 4.3 4.31v8.64a15.6 15.6 0 0 0 -7.88 4.27z" fill="#87828e"/><path d="m226.721 168.52h-2.35a15.784 15.784 0 0 0 -3.25.34 15.733 15.733 0 0 0 0 30.79 15.784 15.784 0 0 0 3.25.34h2.35a4.31 4.31 0 0 0 4.31-4.31v-22.85a4.31 4.31 0 0 0 -4.31-4.31z" fill="#ffbb98"/><path d="m208.631 222.86h-12.49v15.4a12.49 12.49 0 0 0 24.98 0v-15.4z" fill="#796e84"/><path d="m59.241 38.68a22.616 22.616 0 0 1 15.12-21.34 22.62 22.62 0 1 0 -7.5 43.96v18.63h15v-18.63a22.623 22.623 0 0 1 -22.62-22.62z" fill="#ffefee"/><path d="m96.921 167.84v15.9a65.185 65.185 0 0 0 -9.63 5.57c-1.03.73-2.04 1.48-3.04 2.27a63.643 63.643 0 0 0 -24.1 49.94v.81a8.412 8.412 0 0 0 8.41 8.42h-15a8.412 8.412 0 0 1 -8.41-8.42v-.81a63.643 63.643 0 0 1 24.1-49.94c1-.79 2.01-1.54 3.04-2.27a65.185 65.185 0 0 1 9.63-5.57v-15.9z" fill="#ffefee"/><path d="m150.931 16.06a22.357 22.357 0 0 0 -7.49 1.28 22.62 22.62 0 0 1 -7.51 43.96v18.63h15v-18.63a22.62 22.62 0 1 0 0-45.24z" fill="#ffcfcf"/><path d="m153.981 196.43a63.793 63.793 0 0 1 15.89 26.43h-15a63.776 63.776 0 0 0 -21.33-31.28c-.98-.79-2-1.54-3.04-2.27a64.574 64.574 0 0 0 -9.62-5.57v-15.9h15v15.9a64.574 64.574 0 0 1 9.62 5.57c1.04.73 2.06 1.48 3.04 2.27a64.078 64.078 0 0 1 5.44 4.85z" fill="#ffcfcf"/><path d="m208.631 250.75h-15a12.494 12.494 0 0 1 -12.49-12.49v-15.4h15v15.4a12.494 12.494 0 0 0 12.49 12.49z" fill="#ffcfcf"/><path d="m81.861 103.39v10.78a41.629 41.629 0 0 0 2.22 13.44 42.351 42.351 0 0 0 23.49 25.28 41.3 41.3 0 0 0 8.85 2.64 41.489 41.489 0 0 1 -7.52.68c-.26 0-.51 0-.77-.01a41.663 41.663 0 0 1 -15.56-3.31 42.351 42.351 0 0 1 -23.49-25.28 41.629 41.629 0 0 1 -2.22-13.44v-10.78l70.339-22.86 1.62-.6h12.11v1.01z" fill="#ffcaa6"/><path d="m150.931 79.93v34.24a42.187 42.187 0 0 1 -25.7 38.72 41.617 41.617 0 0 1 -16.33 3.32c-.26 0-.51 0-.77-.01a41.239 41.239 0 0 1 -6.71-.67 41.7 41.7 0 0 0 8.81-2.64 42.187 42.187 0 0 0 25.7-38.72v-33.23l1.27-.41 1.62-.6z" fill="#ffaa80"/><path d="m215.451 155.91a4.31 4.31 0 0 0 -4.31 4.31v15.51a15.732 15.732 0 0 0 0 17.05v30.08h-15v-62.64a4.31 4.31 0 0 1 4.31-4.31z" fill="#a4a4a5"/><path d="m216.131 248.25a12.493 12.493 0 0 1 -19.99-9.99v-15.4h15v15.4a12.481 12.481 0 0 0 4.99 9.99z" fill="#87828e"/><g fill="#5f266d"><circle cx="88.197" cy="109.165" r="5.632" transform="matrix(.973 -.23 .23 .973 -22.722 23.184)"/><circle cx="129.6" cy="109.165" r="5.632" transform="matrix(.973 -.23 .23 .973 -21.614 32.696)"/><path d="m107.21 66.31h10a4 4 0 0 0 0-8h-10a4 4 0 1 0 0 8z"/><path d="m132.21 66.31h4.99a4 4 0 0 0 0-8h-4.99a4 4 0 0 0 0 8z"/><circle cx="112.507" cy="209.296" r="5.04" transform="matrix(.973 -.23 .23 .973 -45.076 31.448)"/><circle cx="112.507" cy="230.776" r="5.04" transform="matrix(.707 -.707 .707 .707 -130.231 147.147)"/><path d="m117.071 119.914a4 4 0 0 0 -4 4 4.172 4.172 0 0 1 -8.344 0 4 4 0 0 0 -8 0 12.172 12.172 0 1 0 24.344 0 4 4 0 0 0 -4-4z"/><path d="m234.941 53.488a28.884 28.884 0 0 0 -20.032-12.366c-.048-.01-.1-.013-.147-.021a55.842 55.842 0 0 0 -12.24 0c-.057.01-.117.013-.174.025a28.879 28.879 0 0 0 -20.019 12.364 31.507 31.507 0 0 0 -2.893 29.317c2.42 6.146 1.511 2.483 10.05 20.945 2.781 6.016 14.121 24.141 15.381 26.423v21.735h-4.416a8.32 8.32 0 0 0 -8.31 8.31v58.64h-19.38a67.809 67.809 0 0 0 -32.88-37.607v-13.413a4 4 0 0 0 -4-4h-6.649v-8.4a46.022 46.022 0 0 0 25.7-41.273v-34.2c0-.013 0-.025 0-.038v-14.929a26.625 26.625 0 1 0 -18.742-48.5 32.04 32.04 0 0 0 -54.582 0 26.627 26.627 0 1 0 -18.745 48.5v49.17a45.6 45.6 0 0 0 1.952 13.216c-8.315 15.114-23.815 32.684-41.264 32.214a7.4 7.4 0 0 0 -7.1 4.595 7.537 7.537 0 0 0 1.666 8.367c7.016 6.888 19.314 15.707 36.284 15.706a54.228 54.228 0 0 0 16.017-2.52c-18.088 12.452-29.266 32.728-29.266 56.582a12.428 12.428 0 0 0 12.409 12.42h155.07a16.508 16.508 0 0 0 16.49-16.49v-34.27h1.6a8.32 8.32 0 0 0 8.31-8.31v-22.85a8.32 8.32 0 0 0 -8.31-8.31h-1.6v-4.3a8.314 8.314 0 0 0 -8.3-8.31h-3.954v-21.832c.375-.681 1.673-2.89 2.944-5.051 17.282-29.395 10.155-19.19 19.561-36.869a40.923 40.923 0 0 0 2.462-5.354 31.5 31.5 0 0 0 -2.893-29.316zm-88.01 60.682a38.041 38.041 0 0 1 -74.062 12.155v-.005a37.614 37.614 0 0 1 -2.005-12.15v-7.87l67.576-21.962c.051-.016.1-.034.153-.053l.936-.346h7.4zm-25.7 44.357v5.313h-24.66v-5.315a46.164 46.164 0 0 0 24.661.002zm-50.369-60.643v-13.949h42.922l-30.931 10.052zm-22.623-59.204a18.622 18.622 0 0 1 31.845-13.113 4 4 0 0 0 6.547-1.314 24.027 24.027 0 0 1 44.537 0 4 4 0 0 0 6.546 1.313 18.623 18.623 0 1 1 13.221 31.734 4 4 0 0 0 -4 4v14.63h-76.072v-14.63a4 4 0 0 0 -4-4 18.645 18.645 0 0 1 -18.624-18.62zm-23.732 128.93c21.55-.144 37.349-20.411 44.177-31.081a46.512 46.512 0 0 0 19.887 18.924v8.387h-6.65a4 4 0 0 0 -4 4v6.243c-24.871 12.568-42.615 3.737-53.414-6.473zm64.412 36.29v42.85h-35.358a4.419 4.419 0 0 1 -4.409-4.42c0-25.005 13.833-45.261 34.471-54.97a4 4 0 0 0 2.3-3.62v-11.9h45.96v7.905h-18.807a24.184 24.184 0 0 0 -24.157 24.155zm8 42.849v-42.849a16.175 16.175 0 0 1 16.157-16.156h21.878a59.741 59.741 0 0 1 31.092 36.285 4 4 0 0 0 3.825 2.83h22.27v11.4a16.637 16.637 0 0 0 2.357 8.49zm92.04-162.349a33.263 33.263 0 0 1 -2.078-4.522 23.511 23.511 0 0 1 2.061-21.883 20.643 20.643 0 0 1 6.632-6.209 30.487 30.487 0 0 0 -4.449 25.577l4.775 21.209c-4.189-9.004-5.895-12.212-6.941-14.172zm9.955-8.865c-.01-.049-.022-.1-.035-.145-1.969-7.436-.076-16.6 5.988-22v48.581zm18.207 162.725a8.49 8.49 0 0 1 -16.98 0v-11.4h16.98zm7.25-65.74h2.35a.31.31 0 0 1 .31.31v22.85a.31.31 0 0 1 -.31.31 20.335 20.335 0 0 1 -4.776-.255c-13.487-2.835-11.816-23.215 2.426-23.215zm-7.55-12.61a.3.3 0 0 1 .3.31v5.673a20.247 20.247 0 0 0 -6.7 4.4 19.567 19.567 0 0 0 -5.787 13.954 19.928 19.928 0 0 0 12.49 18.358v16.255h-16.98v-58.64a.31.31 0 0 1 .31-.31zm1.571-84.523c-.013.048-.025.1-.035.145l-5.49 24.368v-46.077c5.69 5.447 7.442 14.323 5.525 21.564zm12 4.488a33.056 33.056 0 0 1 -2.082 4.525c-1.045 1.965-2.752 5.174-6.943 14.175l4.779-21.214a30.492 30.492 0 0 0 -4.446-25.574 20.643 20.643 0 0 1 6.626 6.2 23.511 23.511 0 0 1 2.063 21.888z"/></g></svg>