<svg height="512" viewBox="0 0 64 64" width="512" xmlns="http://www.w3.org/2000/svg"><g id="Time"><path d="m29 10h2v2h-2z"/><path d="m15.565 15.565h2v2h-2z" transform="matrix(.707 -.707 .707 .707 -6.861 16.565)"/><path d="m10 29h2v2h-2z"/><path d="m15.565 42.435h2v2h-2z" transform="matrix(.707 -.707 .707 .707 -25.861 24.435)"/><path d="m29 48h2v2h-2z"/><path d="m48 29h2v2h-2z"/><path d="m42.435 15.565h2v2h-2z" transform="matrix(.707 -.707 .707 .707 1.009 35.565)"/><path d="m31 26.757v-11.757h-2v11.757l-2.243 2.243h-9.757v2h9.757l2.536 2.536a1 1 0 0 0 1.414 0l2.829-2.829a1 1 0 0 0 0-1.414zm-1 4.658-1.415-1.415 1.415-1.415 1.415 1.415z"/><path d="m57.018 37.308a28.049 28.049 0 1 0 -19.71 19.71 13.989 13.989 0 1 0 19.71-19.71zm-27.018 18.692a26.041 26.041 0 1 1 25.275-19.939 13.97 13.97 0 0 0 -1.831-.959 24.038 24.038 0 1 0 -18.344 18.342 13.97 13.97 0 0 0 .959 1.831 26.076 26.076 0 0 1 -6.059.725zm4-8a13.945 13.945 0 0 0 .47 3.537 22.022 22.022 0 1 1 17.067-17.067 13.947 13.947 0 0 0 -17.537 13.53zm14 12a12 12 0 1 1 12-12 12.013 12.013 0 0 1 -12 12z"/><path d="m58 49h-2.069a8.009 8.009 0 0 0 -5.957-6.743 1.98 1.98 0 0 0 .026-.257 2 2 0 0 0 -4 0 1.98 1.98 0 0 0 .026.257 8.009 8.009 0 0 0 -5.957 6.743h-2.069v2h1.382l1.723 3.447a1 1 0 0 0 .895.553h12a1 1 0 0 0 .9-.553l1.718-3.447h1.382zm-10-5a6.006 6.006 0 0 1 5.91 5h-11.82a6.006 6.006 0 0 1 5.91-5zm5.382 9h-10.764l-1-2h12.764z"/></g></svg>