<svg id="Layer_1" enable-background="new 0 0 256 256" height="512" viewBox="0 0 256 256" width="512" xmlns="http://www.w3.org/2000/svg"><g><path d="m138.643 164.111h-49.504c-1.381 0-2.5-1.119-2.5-2.5s1.119-2.5 2.5-2.5h49.504c1.381 0 2.5 1.119 2.5 2.5s-1.12 2.5-2.5 2.5z" fill="#ebe7f2"/><path d="m138.643 155.057h-49.504c-1.381 0-2.5-1.119-2.5-2.5s1.119-2.5 2.5-2.5h49.504c1.381 0 2.5 1.119 2.5 2.5s-1.12 2.5-2.5 2.5z" fill="#ebe7f2"/><g fill="#ed9abc"><path d="m139.846 175.919h-51.91c-1.381 0-2.5-1.119-2.5-2.5v-30.3c-4.866-2.808-7.931-8.026-7.931-13.716 0-8.733 7.104-15.838 15.838-15.838 2.484 0 4.878.568 7.055 1.661 2.746-4.977 7.988-8.15 13.854-8.15s11.107 3.174 13.854 8.15c2.177-1.093 4.57-1.661 7.055-1.661 8.733 0 15.838 7.104 15.838 15.838 0 5.958-3.413 11.421-8.651 14.099v29.917c-.002 1.381-1.121 2.5-2.502 2.5zm-49.41-5h46.91v-29.041c0-1.041.646-1.974 1.62-2.34 4.206-1.581 7.031-5.653 7.031-10.135 0-5.976-4.862-10.838-10.838-10.838-2.426 0-4.727.794-6.652 2.297-.646.505-1.498.657-2.279.417-.782-.243-1.396-.854-1.643-1.634-1.432-4.527-5.584-7.569-10.334-7.569s-8.902 3.042-10.334 7.569c-.247.78-.86 1.391-1.643 1.634-.78.243-1.633.088-2.279-.417-1.926-1.503-4.227-2.297-6.652-2.297-5.976 0-10.838 4.862-10.838 10.838 0 4.274 2.53 8.161 6.446 9.902.902.401 1.484 1.296 1.484 2.284v29.33z"/><path d="m152.498 59.273h-3.237c-1.381 0-2.5-1.119-2.5-2.5s1.119-2.5 2.5-2.5h3.237c1.381 0 2.5 1.119 2.5 2.5s-1.119 2.5-2.5 2.5z"/><path d="m168.195 59.273h-7.336c-1.381 0-2.5-1.119-2.5-2.5s1.119-2.5 2.5-2.5h7.336c1.381 0 2.5 1.119 2.5 2.5s-1.119 2.5-2.5 2.5z"/><path d="m161.503 70.756h-14.51c-1.381 0-2.5-1.119-2.5-2.5s1.119-2.5 2.5-2.5h14.51c1.381 0 2.5 1.119 2.5 2.5s-1.119 2.5-2.5 2.5z"/><path d="m159.001 82.239h-10.78c-1.381 0-2.5-1.119-2.5-2.5s1.119-2.5 2.5-2.5h10.78c1.381 0 2.5 1.119 2.5 2.5s-1.119 2.5-2.5 2.5z"/><path d="m197.26 54.842v-1.555c0-3.774-3.071-6.846-6.846-6.846s-6.846 3.071-6.846 6.846v1.555c-8.794 2.886-15.164 11.168-15.164 20.914 0 1.381 1.119 2.5 2.5 2.5h39.02c1.381 0 2.5-1.119 2.5-2.5 0-9.746-6.371-18.028-15.164-20.914zm-8.692-1.555c0-1.018.828-1.846 1.846-1.846s1.846.828 1.846 1.846v.542c-.609-.051-1.224-.083-1.846-.083s-1.237.032-1.846.083zm-14.98 19.969c1.212-8.198 8.296-14.51 16.826-14.51s15.614 6.312 16.826 14.51z"/><path d="m212.446 86.037h-44.141c-1.381 0-2.5-1.119-2.5-2.5s1.119-2.5 2.5-2.5h44.141c1.381 0 2.5 1.119 2.5 2.5s-1.119 2.5-2.5 2.5z"/></g><g fill="#846f75"><path d="m193.209 122.645-23.855-6.147c-1.333-.342-2.699.459-3.045 1.797-.345 1.337.46 2.7 1.797 3.045l23.853 6.146c2.348.608 3.986 2.726 3.986 5.149v17.729c0 2.424-1.639 4.541-3.983 5.148l-23.855 6.146c-.761.196-1.385.738-1.686 1.464-.301.727-.243 1.551.156 2.228l12.521 21.212c1.229 2.09.892 4.746-.822 6.461l-12.537 12.536c-1.713 1.715-4.368 2.054-6.457.823l-21.215-12.522c-.677-.399-1.502-.457-2.228-.156s-1.268.925-1.464 1.686l-6.146 23.854c-.608 2.347-2.726 3.985-5.149 3.985h-17.729c-2.424 0-4.541-1.639-5.147-3.982l-6.147-23.856c-.196-.761-.738-1.385-1.464-1.686s-1.551-.242-2.228.156l-21.212 12.521c-2.092 1.229-4.747.891-6.46-.822l-12.536-12.536c-1.714-1.715-2.053-4.371-.824-6.458l12.521-21.215c.399-.677.457-1.501.156-2.228-.301-.726-.925-1.268-1.686-1.464l-23.852-6.146c-2.347-.608-3.986-2.726-3.986-5.149v-17.729c0-2.424 1.64-4.541 3.983-5.148l23.854-6.147c.761-.196 1.385-.738 1.686-1.464.301-.727.243-1.551-.156-2.228l-12.52-21.211c-1.229-2.09-.891-4.746.823-6.46l12.536-12.537c1.715-1.714 4.371-2.052 6.457-.823l21.215 12.522c.676.397 1.501.455 2.228.156.726-.301 1.268-.925 1.464-1.686l6.146-23.854c.607-2.346 2.725-3.984 5.148-3.984h17.729c2.424 0 4.541 1.639 5.148 3.982l6.146 23.855c.346 1.338 1.711 2.139 3.045 1.797 1.337-.345 2.142-1.708 1.797-3.045l-6.147-23.858c-1.179-4.552-5.287-7.731-9.989-7.731h-17.729c-4.703 0-8.811 3.18-9.989 7.734l-5.318 20.637-18.355-10.834c-4.053-2.382-9.205-1.729-12.53 1.597l-12.537 12.535c-3.326 3.325-3.982 8.479-1.596 12.534l10.832 18.352-20.639 5.319c-4.553 1.179-7.732 5.287-7.732 9.989v17.729c0 4.702 3.18 8.811 7.735 9.99l20.636 5.317-10.833 18.355c-2.386 4.053-1.729 9.206 1.597 12.531l12.536 12.536c3.325 3.324 8.477 3.979 12.533 1.595l18.353-10.833 5.319 20.64c1.178 4.553 5.285 7.732 9.988 7.732h17.729c4.702 0 8.811-3.18 9.99-7.734l5.317-20.638 18.354 10.834c4.054 2.388 9.206 1.729 12.531-1.596l12.538-12.536c3.324-3.326 3.98-8.479 1.594-12.534l-10.833-18.353 20.64-5.318c4.553-1.179 7.732-5.287 7.732-9.989v-17.729c.002-4.7-3.177-8.809-7.733-9.988z"/><path d="m186.361 27.771c-23.243 0-42.153 18.909-42.153 42.152 0 8.006 2.238 15.748 6.484 22.472l-5.489 15.385c-.324.909-.097 1.925.587 2.607.683.684 1.698.909 2.607.587l15.349-5.476c6.759 4.307 14.55 6.577 22.615 6.577 23.243 0 42.152-18.909 42.152-42.152s-18.909-42.152-42.152-42.152zm0 79.305c-7.488 0-14.706-2.219-20.875-6.417-.42-.286-.911-.434-1.406-.434-.283 0-.567.048-.84.146l-11.556 4.122 4.134-11.585c.268-.748.162-1.579-.282-2.238-4.14-6.138-6.328-13.312-6.328-20.746 0-20.486 16.667-37.152 37.153-37.152s37.152 16.666 37.152 37.152-16.665 37.152-37.152 37.152z"/></g></g></svg>