<svg width="518" height="102" xmlns="http://www.w3.org/2000/svg">
 <style type="text/css">.st0{fill:#3D3072;}
	.st1{fill:#F5B43C;}
	.st2{fill:#00FF00;}
	.st3{fill:#CB203A;}
	.st4{fill:#900C3F;}
	.st5{fill:none;}
	.st6{opacity:0.46;fill:url(#SVGID_1_);}
	.st7{opacity:0.46;fill:url(#SVGID_2_);}
	.st8{opacity:0.46;fill:url(#SVGID_3_);}
	.st9{opacity:0.46;fill:url(#SVGID_4_);}
	.st10{opacity:0.46;fill:url(#SVGID_5_);}
	.st11{opacity:0.46;}
	.st12{fill:url(#SVGID_6_);}
	.st13{fill:url(#SVGID_7_);}
	.st14{fill:url(#SVGID_8_);}
	.st15{opacity:0.46;fill:url(#SVGID_9_);}</style>

 <g>
  <title>background</title>
  <rect fill="none" id="canvas_background" height="104" width="520" y="-1" x="-1"/>
 </g>
 <g>
  <title>Layer 1</title>
  <g id="svg_1">
   <g id="svg_2">
    <g id="svg_3">
     <path id="svg_4" d="m179.199997,80.000006l-14.4,0l-18.7,-21.5l-11.6,0l0,21.5l-12.1,0l0,-64.3c10.2,0 20.3,0.1 30.5,0.1c15.1,0.1 23.1,10.2 23.1,21.3c0,8.8 -4,17.7 -16.2,20.2l19.4,21.9l0,0.8zm-44.7,-52.9l0,20.5l18.4,0c7.7,0 11,-5.1 11,-10.3c0,-5.1 -3.4,-10.3 -11,-10.3l-18.4,0l0,0.1z" class="st0"/>
     <path id="svg_5" d="m192.899997,61.400006c0.7,5.6 5.6,9.6 13.5,9.6c4.1,0 9.5,-1.6 12.1,-4.2l7.2,7.1c-4.8,5 -12.6,7.3 -19.4,7.3c-15.6,0 -24.8,-9.6 -24.8,-24.1c0,-13.8 9.4,-23.6 24,-23.6c15.1,0 24.6,9.3 22.8,28l-35.4,0l0,-0.1zm24.5,-9.3c-0.7,-5.9 -5.3,-8.8 -11.7,-8.8c-6,0 -11,2.9 -12.7,8.8l24.4,0z" class="st0"/>
     <path id="svg_6" d="m275.599997,74.200006c-5.2,5.1 -10.7,7.2 -17.4,7.2c-13.1,0 -24,-7.9 -24,-23.9c0,-16 10.9,-23.9 24,-23.9c6.4,0 11.4,1.8 16.3,6.7l-7.1,7.4c-2.7,-2.4 -6,-3.6 -9.1,-3.6c-7.5,0 -13,5.5 -13,13.4c0,8.6 5.9,13.2 12.8,13.2c3.6,0 7.2,-1 9.9,-3.8l7.6,7.3z" class="st0"/>
     <path id="svg_7" d="m292.699997,22.000006c0,8.7 -13.2,8.7 -13.2,0c0,-8.7 13.2,-8.7 13.2,0zm-12.2,12.6l0,45.4l11.2,0l0,-45.4l-11.2,0z" class="st0"/>
     <path id="svg_8" d="m301.799997,98.800006l0,-64.1l10.4,0l0.7,6.2c3.5,-5 9.5,-7.2 14.7,-7.2c13.9,0 23.2,10.4 23.2,23.7c0,13.2 -8.3,23.6 -22.8,23.6c-4.8,0 -11.8,-1.5 -15,-6.4l0,24.2l-11.2,0zm37.8,-41.4c0,-7.1 -4.8,-12.8 -12.8,-12.8c-8.1,0 -12.8,5.8 -12.8,12.8c0,7.1 5.2,12.8 12.8,12.8c7.6,0 12.8,-5.7 12.8,-12.8z" class="st0"/>
     <path id="svg_9" d="m368.599997,61.400006c0.7,5.6 5.6,9.6 13.5,9.6c4.1,0 9.5,-1.6 12.1,-4.2l7.2,7.1c-4.8,5 -12.6,7.3 -19.4,7.3c-15.6,0 -24.8,-9.6 -24.8,-24.1c0,-13.8 9.4,-23.6 24,-23.6c15.1,0 24.6,9.3 22.8,28l-35.4,0l0,-0.1zm24.6,-9.3c-0.7,-5.9 -5.3,-8.8 -11.7,-8.8c-6,0 -11,2.9 -12.7,8.8l24.4,0z" class="st0"/>
     <path id="svg_10" d="m424.699997,22.000006c0,8.7 -13.2,8.7 -13.2,0c0,-8.7 13.2,-8.7 13.2,0zm-12.2,12.6l0,45.4l11.2,0l0,-45.4l-11.2,0z" class="st0"/>
     <path id="svg_11" d="m437.399997,80.000006l0,-34.7l-8.4,0l0,-9.8l8.4,0l0,-3c0,-12.1 8.2,-17.7 17.2,-17.7c3.9,0 8.1,1.3 11.7,3.7l-4.1,8.3c-2.4,-1.6 -4.6,-2.4 -6.9,-2.4c-3.9,0 -6.8,2.6 -6.8,8.1l0,3l13.3,0l0,9.8l-13.3,0l0,34.7l-11.1,0z" class="st0"/>
     <path id="svg_12" d="m516.299997,34.800006l-27.6,64.1l-12.3,0l8.4,-19.6l-18.1,-44.5l13,0l6.9,19.5l4.3,12.7l4.7,-12.5l8.3,-19.8l12.4,0l0,0.1z" class="st0"/>
    </g>
   </g>
   <path id="svg_13" d="m76.999997,0.000006c-8,0 -15.1,3.7 -19.8,9.4c-4.7,-5.7 -11.8,-9.4 -19.8,-9.4l-25.8,0l0,11.5l25.8,0c7.6,0 13.7,6 14,13.5l11.6,0c0.3,-7.5 6.4,-13.5 14,-13.5l10.9,0l0,0l27,0l0,-11.5l-37.9,0z" class="st1"/>
   <path id="svg_14" d="m0.099997,0.900006l0,6.8l0,11.6c5.7,0.9 10.2,5.2 11.5,10.7c0,0 0,0 0,0l0,-18.3c0,0 0,-0.1 0,-0.1c0,0 0,0 0,0l0,-11.5l-11.5,0l0,0.8z" class="st1"/>
   <path id="svg_15" d="m11.599997,11.700006l0,-0.1c0,0 0,0 0,0c0,0 0,0 0,0.1z" class="st2"/>
   <path id="svg_16" d="m0.099997,19.300006l0,6.9l0,11.6c5.7,0.9 10.2,5.2 11.5,10.7c0,0 0,-18.4 0,-18.4c0,0 0,0 0,-0.1c-1.3,-5.6 -5.8,-9.9 -11.5,-10.7z" class="st3"/>
   <path id="svg_17" d="m11.599997,30.000006c0,0 0,0 0,0c0,0 0,0 0,0z" class="st2"/>
   <path id="svg_18" d="m0.099997,37.700006l0,7.5l0,11.5c5,0.3 9.3,3.4 11.5,7.6l0,-15.9c0,0 0,0 0,-0.1c-1.3,-5.4 -5.8,-9.7 -11.5,-10.6z" class="st4"/>
   <path id="svg_19" d="m11.599997,48.400006" class="st2"/>
   <path id="svg_20" d="m11.599997,80.300006l0,-0.2l-0.1,0c0,0 0.1,0.1 0.1,0.2z" class="st2"/>
   <path id="svg_21" d="m93.599997,64.300006l0,4.3l-7.8,0l-4.9,0l-3.9,0c-8,0 -15.1,3.7 -19.8,9.4c-4.7,-5.7 -11.8,-9.4 -19.8,-9.4l-0.2,0l-14.3,0l-11.3,0l0,-4.3c0,0 0,-0.1 -0.1,-0.1c0,-0.1 0,-0.2 -0.1,-0.3l0,0l0,0c-1.4,-5.3 -5.8,-9.4 -11.4,-10.3l0,26.5l11.4,0l0.1,0l0,0l11.3,0l14.4,0l0.2,0c7.6,0 13.7,6 14,13.5l11.6,0c0.3,-7.5 6.4,-13.5 14,-13.5l3.9,0l4.9,0l19.3,0l0,-15.8l-11.5,0z" class="st0"/>
   <path id="svg_22" d="m105.999997,43.700006c0.7,-1.2 1.3,-2.5 2,-3.7c0.2,-0.3 0.3,-0.7 0.5,-1c0.2,-0.4 0.4,-0.9 0.7,-1.3c0.5,-0.9 1,-2 1.5,-3.2c0.5,-1.3 0.9,-2.8 0.8,-4.4l-5.6,0c0,0.1 0,0.1 0,0.2c-0.1,0.4 -0.1,0.9 -0.1,1.4c0,0.3 0,0.6 -0.1,0.9c0,0.2 0,0.3 0,0.5c0,0.4 -0.1,0.8 -0.2,1.2c-0.1,0.3 -0.1,0.6 -0.1,1c0,0.2 0,0.4 -0.1,0.5c0,0.1 -0.1,0.2 -0.1,0.4c0,0.2 0,0.4 -0.1,0.6c0,0.1 0,0.3 -0.1,0.4c0,0.2 -0.1,0.4 -0.1,0.6l-0.1,0.3c0,0.2 -0.1,0.4 -0.1,0.6c0,0.2 -0.1,0.4 -0.1,0.5c0,0.2 -0.1,0.5 -0.1,0.7c0,0.2 -0.1,0.5 -0.1,0.7c0,0.2 -0.1,0.5 -0.1,0.7c0,0.3 -0.1,0.5 -0.1,0.8c0,0.2 -0.1,0.4 -0.1,0.6c0,0.3 -0.1,0.6 -0.2,1c-0.1,0.4 -0.1,0.7 -0.2,1.1c0,0.2 -0.1,0.5 -0.1,0.7c0,0.2 -0.1,0.4 -0.1,0.6c-0.1,0.3 -0.1,0.6 -0.2,0.9c0,0.3 -0.1,0.6 -0.1,0.9l-0.1,0.5c0,0 0,0.1 0,0.1l0.5,0c0.5,-1 0.9,-2 1.4,-2.8c0.3,-0.7 0.6,-1.4 1,-2z" class="st5"/>
   <path id="svg_23" d="m95.499997,47.800006c0,-0.3 -0.1,-0.6 -0.1,-0.9c0,-0.3 -0.1,-0.6 -0.2,-0.9c0,-0.2 -0.1,-0.4 -0.1,-0.6c0,-0.2 -0.1,-0.5 -0.1,-0.7c-0.1,-0.4 -0.1,-0.7 -0.2,-1.1c-0.1,-0.3 -0.1,-0.6 -0.2,-0.9c0,-0.2 -0.1,-0.4 -0.1,-0.6c0,-0.3 -0.1,-0.5 -0.1,-0.8c0,-0.2 -0.1,-0.5 -0.1,-0.7c0,-0.2 -0.1,-0.5 -0.1,-0.7c0,-0.2 -0.1,-0.5 -0.1,-0.7c0,-0.2 -0.1,-0.4 -0.1,-0.5c0,-0.2 -0.1,-0.4 -0.1,-0.6l-0.1,-0.3c0,-0.2 -0.1,-0.4 -0.1,-0.5c0,-0.1 0,-0.3 -0.1,-0.4c0,-0.2 -0.1,-0.4 -0.1,-0.6c0,-0.1 0,-0.3 -0.1,-0.4c0,-0.2 -0.1,-0.4 -0.1,-0.5c0,-0.4 0,-0.7 -0.1,-1c-0.1,-0.4 -0.1,-0.8 -0.2,-1.2c0,-0.2 0,-0.3 0,-0.5c0,-0.3 -0.1,-0.6 -0.1,-0.9c0,-0.5 0,-0.9 -0.1,-1.4c0,-0.1 0,-0.1 0,-0.2l-5.6,0c-0.1,1.6 0.3,3.1 0.8,4.4c0.4,1.2 1,2.3 1.5,3.2c0.2,0.4 0.4,0.9 0.7,1.3c0.2,0.3 0.3,0.7 0.5,1c0.6,1.2 1.3,2.5 2,3.7c0.3,0.6 0.7,1.3 1,1.9c0.4,0.8 0.9,1.8 1.4,2.8l0.5,0c0,0 0,-0.1 0,-0.1l-0.1,-0.6z" class="st5"/>
   <path id="svg_24" d="m102.099997,30.000006l-5.5,0c0.2,4.1 0.9,8.1 1.6,12.1c0.4,2.1 0.8,4.2 1.1,6.3l0,0c0.3,-2.1 0.7,-4.2 1.1,-6.3c0.7,-4 1.5,-8 1.7,-12.1z" class="st5"/>
   <path id="svg_25" d="m103.199997,47.800006c0,-0.3 0.1,-0.6 0.1,-0.9c0,-0.3 0.1,-0.6 0.2,-0.9c0,-0.2 0.1,-0.4 0.1,-0.6c0,-0.2 0.1,-0.5 0.1,-0.7c0.1,-0.4 0.1,-0.7 0.2,-1.1c0.1,-0.3 0.1,-0.6 0.2,-1c0,-0.2 0.1,-0.4 0.1,-0.6c0,-0.3 0.1,-0.5 0.1,-0.8c0,-0.2 0.1,-0.5 0.1,-0.7c0,-0.2 0.1,-0.5 0.1,-0.7c0,-0.2 0.1,-0.5 0.1,-0.7c0,-0.2 0.1,-0.4 0.1,-0.5c0,-0.2 0.1,-0.4 0.1,-0.6l0.1,-0.3c0,-0.2 0.1,-0.4 0.1,-0.6c0,-0.1 0,-0.3 0.1,-0.4c0,-0.2 0.1,-0.4 0.1,-0.6c0,-0.1 0,-0.3 0.1,-0.4c0,-0.2 0.1,-0.4 0.1,-0.5c0,-0.4 0,-0.7 0.1,-1c0.1,-0.4 0.1,-0.8 0.2,-1.2c0,-0.2 0,-0.3 0,-0.5c0,-0.3 0.1,-0.6 0.1,-0.9c0,-0.5 0,-0.9 0.1,-1.4c0,-0.1 0,-0.1 0,-0.2l-3.7,0c-0.2,4.1 -0.9,8.1 -1.6,12.1c-0.4,2.1 -0.8,4.2 -1.1,6.3l3.7,0c0,0 0,-0.1 0,-0.1l0,-0.5z" class="st3"/>
   <path id="svg_26" d="m93.699997,45.600006c-0.3,-0.6 -0.7,-1.3 -1,-1.9c-0.7,-1.2 -1.3,-2.5 -2,-3.7c-0.2,-0.3 -0.3,-0.7 -0.5,-1c-0.2,-0.4 -0.4,-0.9 -0.7,-1.3c-0.5,-0.9 -1,-2 -1.5,-3.2c-0.5,-1.3 -0.9,-2.8 -0.8,-4.4l-3.5,0c-0.1,1.6 0.2,3.2 0.6,4.7c0.9,3.1 2.6,6 4.3,8.9c0.4,0.6 0.7,1.3 1.1,1.9c0.5,0.9 1,1.9 1.5,2.9l3.8,0c-0.3,-1.1 -0.8,-2 -1.3,-2.9z" class="st3"/>
   <path id="svg_27" d="m96.599997,30.000006l-3.7,0c0,0.1 0,0.1 0,0.2c0.1,0.4 0.1,0.9 0.1,1.4c0,0.3 0,0.6 0.1,0.9c0,0.2 0,0.3 0,0.5c0,0.4 0.1,0.8 0.2,1.2c0.1,0.3 0.1,0.6 0.1,1c0,0.2 0,0.4 0.1,0.5c0,0.1 0.1,0.2 0.1,0.4c0,0.2 0,0.4 0.1,0.6c0,0.1 0,0.3 0.1,0.4c0,0.2 0.1,0.4 0.1,0.5l0.1,0.3c0,0.2 0.1,0.4 0.1,0.6c0,0.2 0.1,0.4 0.1,0.5c0,0.2 0.1,0.5 0.1,0.7c0,0.2 0.1,0.5 0.1,0.7c0,0.2 0.1,0.5 0.1,0.7c0,0.3 0.1,0.5 0.1,0.8c0,0.2 0.1,0.4 0.1,0.6c0,0.3 0.1,0.6 0.2,0.9c0.1,0.4 0.1,0.7 0.2,1.1c0,0.2 0.1,0.5 0.1,0.7c0,0.2 0.1,0.4 0.1,0.6c0.1,0.3 0.1,0.6 0.2,0.9c0,0.3 0.1,0.6 0.1,0.9l0.1,0.5c0,0 0,0.1 0,0.1l3.7,0c-0.3,-2.1 -0.7,-4.2 -1.1,-6.3c-0.8,-3.8 -1.5,-7.8 -1.7,-11.9z" class="st3"/>
   <path id="svg_28" d="m110.499997,34.400006c-0.4,1.2 -1,2.3 -1.5,3.2c-0.2,0.4 -0.4,0.9 -0.7,1.3c-0.2,0.3 -0.3,0.7 -0.5,1c-0.6,1.2 -1.3,2.5 -2,3.7c-0.3,0.6 -0.7,1.3 -1,1.9c-0.4,0.8 -0.9,1.8 -1.4,2.8l3.8,0c0.5,-1 1,-2 1.5,-2.9c0.4,-0.6 0.7,-1.3 1.1,-1.9c1.7,-2.9 3.4,-5.8 4.3,-8.9c0.4,-1.5 0.7,-3.1 0.6,-4.7l-3.5,0c0.2,1.7 -0.2,3.2 -0.7,4.5z" class="st3"/>
   <path id="svg_29" d="m87.299997,29.500006c0.3,-2.1 1.2,-3.9 2.8,-5.4c0.9,-0.8 2,-1.6 3.5,-2.2c-0.1,0.3 -0.1,0.6 -0.2,0.9c-0.1,0.4 -0.2,0.7 -0.2,1.1c-0.1,0.6 -0.2,1.2 -0.2,1.7c-0.1,1 -0.1,1.9 0,2.8c0,0.2 0,0.4 0,0.6c0,0.4 0,0.7 0,1.1l3.7,0c-0.1,-2.6 0,-5.1 0.4,-7.7c0.1,-0.5 0.2,-1 0.6,-1.3c0.4,-0.2 3,-0.2 3.4,0c0.4,0.3 0.5,0.8 0.6,1.3c0.5,2.5 0.6,5.1 0.4,7.7l3.7,0c0,-0.4 0,-0.7 0,-1.1c0,-0.2 0,-0.4 0,-0.6c0,-0.9 0.1,-1.8 0,-2.8c-0.1,-0.5 -0.1,-1.1 -0.2,-1.7c-0.1,-0.4 -0.1,-0.7 -0.2,-1.1c-0.1,-0.3 -0.1,-0.6 -0.2,-0.9c1.4,0.6 2.6,1.4 3.5,2.2c1.6,1.5 2.5,3.3 2.8,5.4c0,0.2 0,0.4 0,0.6l3.5,0c-0.2,-4.5 -2.8,-9 -9.8,-11.1l-0.1,0c-0.3,-0.1 -0.7,-0.2 -0.9,-0.3c-0.2,-0.1 -0.3,-0.3 -0.5,-0.6l0,-0.1c-0.4,-0.7 -1.6,-2.3 -3.8,-2.6c-0.1,-0.1 -0.3,0 -0.3,0c-0.1,0 -0.2,0 -0.4,0c-2.2,0.3 -3.4,1.9 -3.8,2.6l0,0.1c-0.1,0.2 -0.3,0.4 -0.5,0.6c-0.2,0.1 -0.6,0.2 -0.9,0.3l-0.1,0c-7,2.1 -9.6,6.6 -9.8,11.1l3.5,0c-0.3,-0.3 -0.3,-0.4 -0.3,-0.6z" class="st1"/>
   <path id="svg_30" d="m99.299997,48.500006c0,0 0,-0.1 0,-0.1l0,0c0,0.1 0,0.1 0,0.1z" class="st1"/>
   <path id="svg_31" d="m107.299997,48.400006l-3.8,0c-0.2,0.4 -0.3,0.7 -0.5,1.1c-0.1,0.2 -0.1,0.3 -0.2,0.5c0,0 0,0 0,0c0,-0.2 0,-0.5 0.1,-0.9c0.1,-0.2 0.1,-0.5 0.1,-0.7l-3.7,0c0,0 0,0.1 0,0.1c0,0 0,-0.1 0,-0.1l-3.7,0c0,0.2 0.1,0.4 0.1,0.7c0.1,0.4 0.1,0.6 0.1,0.9c0,0 0,0 0,0c-0.1,-0.2 -0.1,-0.3 -0.2,-0.5c-0.2,-0.4 -0.3,-0.7 -0.5,-1.1l-3.8,0c1.2,2.6 2.2,5.2 2.2,7.9c0,0.1 0.1,8 0.1,8l11.5,0l0,-8.4c0.2,-2.5 1.1,-5 2.2,-7.5z" class="st4"/>
   <path id="svg_32" d="m102.999997,49.500006c-0.1,0.2 -0.1,0.3 -0.2,0.5c0,0 0,0 0,0c0,-0.2 0,-0.5 0.1,-0.9c0.1,-0.2 0.1,-0.5 0.1,-0.7l-3.7,0c0,0 0,0.1 0,0.1c0,0 0,-0.1 0,-0.1l-3.7,0c0,0.2 0.1,0.4 0.1,0.7c0.1,0.4 0.1,0.6 0.1,0.9c0,0 0,0 0,0c-0.1,-0.2 -0.1,-0.3 -0.2,-0.5c-0.2,-0.4 -0.3,-0.7 -0.5,-1.1l-3.8,0c0.4,0.8 0.7,1.6 1,2.4l13.9,0c0.3,-0.8 0.7,-1.6 1,-2.4l-3.8,0c0,0.4 -0.2,0.7 -0.4,1.1z" class="st6"/>
   <path id="svg_33" d="m105.599997,32.300006c0,-0.2 0.1,-0.4 0,-0.7c0,-0.5 0,-0.9 0.1,-1.4c0,-0.1 0,-0.1 0,-0.2l-3.7,0c0,0.8 -0.1,1.5 -0.2,2.3l3.8,0z" class="st7"/>
   <path id="svg_34" d="m87.299997,30.000006l-3.5,0c0,0.8 0,1.5 0.1,2.3l3.6,0c-0.2,-0.7 -0.2,-1.5 -0.2,-2.3z" class="st8"/>
   <path id="svg_35" d="m92.999997,31.600006c0,0.2 0,0.4 0,0.7l3.7,0c-0.1,-0.8 -0.1,-1.5 -0.2,-2.3l-3.7,0c0,0.1 0,0.1 0,0.2c0.2,0.5 0.2,1 0.2,1.4z" class="st9"/>
   <path id="svg_36" d="m111.099997,32.300006l3.6,0c0.1,-0.8 0.1,-1.5 0.1,-2.3l-3.5,0c0.1,0.8 0,1.6 -0.2,2.3z" class="st10"/>
   <g id="svg_37" class="st11">
    <path id="svg_38" d="m11.599997,30.000006c-1.3,-5.5 -5.8,-9.8 -11.5,-10.7l0,2.1c8,0.3 11.5,8.6 11.5,8.6z" class="st12"/>
   </g>
   <g id="svg_39" class="st11">
    <path id="svg_40" d="m11.599997,48.400006c-1.3,-5.5 -5.8,-9.8 -11.5,-10.7l0,2.1c8,0.3 11.5,8.6 11.5,8.6z" class="st13"/>
   </g>
   <g id="svg_41" class="st11">
    <path id="svg_42" d="m11.599997,64.300006c-1.3,-5.5 -5.8,-9.8 -11.5,-10.7l0,2.1c8,0.3 11.5,8.6 11.5,8.6z" class="st14"/>
   </g>
   <rect id="svg_43" height="2.4" width="11.6" class="st15" y="64.300006" x="93.599997"/>
  </g>
 </g>
</svg>