<?xml version="1.0" encoding="iso-8859-1"?>
<!-- Generator: Adobe Illustrator 18.0.0, SVG Export Plug-In . SVG Version: 6.00 Build 0)  -->
<!DOCTYPE svg PUBLIC "-//W3C//DTD SVG 1.1//EN" "http://www.w3.org/Graphics/SVG/1.1/DTD/svg11.dtd">
<svg version="1.1" id="Capa_1" xmlns="http://www.w3.org/2000/svg" xmlns:xlink="http://www.w3.org/1999/xlink" x="0px" y="0px"
	 viewBox="0 0 297 297" style="enable-background:new 0 0 297 297;" xml:space="preserve">
<path d="M181.047,173.521c-3.605-0.291-9.393-0.474-13.551-0.225V79.106c0-1.659-0.398-3.221-1.089-4.612
	c-0.006-0.015-0.003-0.027-0.01-0.042l-16.076-32.151V10.408C150.321,4.66,145.661,0,139.913,0H36.866
	c-5.749,0-10.409,4.66-10.409,10.408v31.893L10.382,74.452c-0.027,0.054-0.043,0.103-0.064,0.152
	c-0.656,1.364-1.035,2.887-1.035,4.502V285.2c0,5.749,4.661,10.409,10.409,10.409h141.124c2.916,0.557,5.732,0.97,8.384,1.185
	c1.704,0.137,3.403,0.206,5.096,0.206c9.482,0,18.728-2.165,27.213-6.353c7.459,3.191,15.665,4.963,24.277,4.963
	c34.149,0,61.933-27.782,61.933-61.933c0-16.501-6.386-39.43-16.268-58.413c-12.712-24.42-28.93-37.868-45.665-37.868
	C209.453,137.395,193.616,150.209,181.047,173.521z M170.881,276.043c-12.952-1.05-32.491-8.374-47.516-17.812
	c-15.938-10.012-25.05-20.952-24.376-29.266c0.674-8.313,11.43-17.644,28.772-24.957c14.165-5.972,31.414-9.83,44.193-10.071
	c-5.089,14.038-8.103,28.404-8.103,39.739c0,16.221,6.276,30.996,16.518,42.049C177.261,276.193,174.083,276.307,170.881,276.043z
	 M43.299,55.166h90.181l6.766,13.532H36.533L43.299,55.166z M47.274,20.817h82.23v13.531h-82.23V20.817z M30.1,89.516h116.579
	v86.776c-9.112,2.009-18.406,4.91-27.006,8.536c-25.367,10.696-40.081,25.775-41.435,42.456
	c-1.319,16.277,10.171,33.097,32.389,47.508H30.1V89.516z M225.785,274.792c-22.671,0-41.114-18.444-41.114-41.115
	c0-12.994,5.722-33.062,13.914-48.8c8.691-16.696,18.86-26.663,27.2-26.663c8.34,0,18.509,9.967,27.2,26.663
	c8.192,15.738,13.914,35.806,13.914,48.8C266.899,256.348,248.456,274.792,225.785,274.792z"/>
<g>
</g>
<g>
</g>
<g>
</g>
<g>
</g>
<g>
</g>
<g>
</g>
<g>
</g>
<g>
</g>
<g>
</g>
<g>
</g>
<g>
</g>
<g>
</g>
<g>
</g>
<g>
</g>
<g>
</g>
</svg>
