<?xml version="1.0" encoding="utf-8"?>
<!-- Generator: Adobe Illustrator 24.1.3, SVG Export Plug-In . SVG Version: 6.00 Build 0)  -->
<svg version="1.1" id="Layer_1" xmlns="http://www.w3.org/2000/svg" xmlns:xlink="http://www.w3.org/1999/xlink" x="0px" y="0px"
	 viewBox="0 0 1000 1000" style="enable-background:new 0 0 1000 1000;" xml:space="preserve">
<style type="text/css">
	.st0{fill:#3D3072;}
	.st1{fill:#F5B43C;}
	.st2{fill:#00FF00;}
	.st3{fill:#CB203A;}
	.st4{fill:#900C3F;}
	.st5{fill:none;}
	.st6{opacity:0.46;fill:url(#SVGID_1_);}
	.st7{opacity:0.46;fill:url(#SVGID_2_);}
	.st8{opacity:0.46;fill:url(#SVGID_3_);}
	.st9{opacity:0.46;fill:url(#SVGID_4_);}
	.st10{opacity:0.46;fill:url(#SVGID_5_);}
	.st11{opacity:0.46;}
	.st12{fill:url(#SVGID_6_);}
	.st13{fill:url(#SVGID_7_);}
	.st14{fill:url(#SVGID_8_);}
	.st15{opacity:0.46;fill:url(#SVGID_9_);}
</style>
<g>
	<g>
		<g>
			<path class="st0" d="M421,530.4h-14.4l-18.7-21.5h-11.6v21.5h-12.1v-64.3c10.2,0,20.3,0.1,30.5,0.1c15.1,0.1,23.1,10.2,23.1,21.3
				c0,8.8-4,17.7-16.2,20.2l19.4,21.9V530.4z M376.3,477.5V498h18.4c7.7,0,11-5.1,11-10.3c0-5.1-3.4-10.3-11-10.3H376.3z"/>
			<path class="st0" d="M434.7,511.8c0.7,5.6,5.6,9.6,13.5,9.6c4.1,0,9.5-1.6,12.1-4.2l7.2,7.1c-4.8,5-12.6,7.3-19.4,7.3
				c-15.6,0-24.8-9.6-24.8-24.1c0-13.8,9.4-23.6,24-23.6c15.1,0,24.6,9.3,22.8,28H434.7z M459.2,502.5c-0.7-5.9-5.3-8.8-11.7-8.8
				c-6,0-11,2.9-12.7,8.8H459.2z"/>
			<path class="st0" d="M517.4,524.6c-5.2,5.1-10.7,7.2-17.4,7.2c-13.1,0-24-7.9-24-23.9c0-16,10.9-23.9,24-23.9
				c6.4,0,11.4,1.8,16.3,6.7l-7.1,7.4c-2.7-2.4-6-3.6-9.1-3.6c-7.5,0-13,5.5-13,13.4c0,8.6,5.9,13.2,12.8,13.2c3.6,0,7.2-1,9.9-3.8
				L517.4,524.6z"/>
			<path class="st0" d="M534.5,472.4c0,8.7-13.2,8.7-13.2,0C521.3,463.7,534.5,463.7,534.5,472.4z M522.3,485v45.4h11.2V485H522.3z"
				/>
			<path class="st0" d="M543.6,549.2v-64.1H554l0.7,6.2c3.5-5,9.5-7.2,14.7-7.2c13.9,0,23.2,10.4,23.2,23.7
				c0,13.2-8.3,23.6-22.8,23.6c-4.8,0-11.8-1.5-15-6.4v24.2H543.6z M581.4,507.8c0-7.1-4.8-12.8-12.8-12.8
				c-8.1,0-12.8,5.8-12.8,12.8c0,7.1,5.2,12.8,12.8,12.8C576.2,520.6,581.4,514.9,581.4,507.8z"/>
			<path class="st0" d="M610.4,511.8c0.7,5.6,5.6,9.6,13.5,9.6c4.1,0,9.5-1.6,12.1-4.2l7.2,7.1c-4.8,5-12.6,7.3-19.4,7.3
				c-15.6,0-24.8-9.6-24.8-24.1c0-13.8,9.4-23.6,24-23.6c15.1,0,24.6,9.3,22.8,28H610.4z M635,502.5c-0.7-5.9-5.3-8.8-11.7-8.8
				c-6,0-11,2.9-12.7,8.8H635z"/>
			<path class="st0" d="M666.5,472.4c0,8.7-13.2,8.7-13.2,0C653.3,463.7,666.5,463.7,666.5,472.4z M654.3,485v45.4h11.2V485H654.3z"
				/>
			<path class="st0" d="M679.2,530.4v-34.7h-8.4v-9.8h8.4v-3c0-12.1,8.2-17.7,17.2-17.7c3.9,0,8.1,1.3,11.7,3.7l-4.1,8.3
				c-2.4-1.6-4.6-2.4-6.9-2.4c-3.9,0-6.8,2.6-6.8,8.1v3h13.3v9.8h-13.3v34.7H679.2z"/>
			<path class="st0" d="M758.1,485.2l-27.6,64.1h-12.3l8.4-19.6l-18.1-44.5h13l6.9,19.5l4.3,12.7l4.7-12.5l8.3-19.8H758.1z"/>
		</g>
	</g>
	<path class="st1" d="M318.8,450.4c-8,0-15.1,3.7-19.8,9.4c-4.7-5.7-11.8-9.4-19.8-9.4h-25.8l0,11.5h25.8c7.6,0,13.7,6,14,13.5h11.6
		c0.3-7.5,6.4-13.5,14-13.5h10.9v0h27v-11.5H318.8z"/>
	<path class="st1" d="M241.9,451.3v6.8v11.6c5.7,0.9,10.2,5.2,11.5,10.7c0,0,0,0,0,0v-18.3c0,0,0-0.1,0-0.1c0,0,0,0,0,0v-11.5h-11.5
		V451.3z"/>
	<path class="st2" d="M253.4,462.1v-0.1c0,0,0,0,0,0C253.4,462,253.4,462,253.4,462.1z"/>
	<path class="st3" d="M241.9,469.7v6.9v11.6c5.7,0.9,10.2,5.2,11.5,10.7c0,0,0-18.4,0-18.4c0,0,0,0,0-0.1
		C252.1,474.8,247.6,470.5,241.9,469.7z"/>
	<path class="st2" d="M253.4,480.4C253.4,480.4,253.4,480.4,253.4,480.4C253.4,480.4,253.4,480.4,253.4,480.4z"/>
	<path class="st4" d="M241.9,488.1v7.5v11.5c5,0.3,9.3,3.4,11.5,7.6v-15.9c0,0,0,0,0-0.1C252.1,493.3,247.6,489,241.9,488.1z"/>
	<path class="st2" d="M253.4,498.8"/>
	<path class="st2" d="M253.4,530.7v-0.2h-0.1C253.3,530.5,253.4,530.6,253.4,530.7z"/>
	<path class="st0" d="M335.4,514.7v4.3h-7.8h-4.9h-3.9c-8,0-15.1,3.7-19.8,9.4c-4.7-5.7-11.8-9.4-19.8-9.4H279h-14.3h-11.3v-4.3
		c0,0,0-0.1-0.1-0.1c0-0.1,0-0.2-0.1-0.3l0,0l0,0c-1.4-5.3-5.8-9.4-11.4-10.3l0,26.5h11.4h0.1h0h11.3h14.4h0.2c7.6,0,13.7,6,14,13.5
		h11.6c0.3-7.5,6.4-13.5,14-13.5h3.9h4.9h19.3v-15.8H335.4z"/>
	<path class="st5" d="M347.8,494.1c0.7-1.2,1.3-2.5,2-3.7c0.2-0.3,0.3-0.7,0.5-1c0.2-0.4,0.4-0.9,0.7-1.3c0.5-0.9,1-2,1.5-3.2
		c0.5-1.3,0.9-2.8,0.8-4.4h-5.6c0,0.1,0,0.1,0,0.2c-0.1,0.4-0.1,0.9-0.1,1.4c0,0.3,0,0.6-0.1,0.9c0,0.2,0,0.3,0,0.5
		c0,0.4-0.1,0.8-0.2,1.2c-0.1,0.3-0.1,0.6-0.1,1c0,0.2,0,0.4-0.1,0.5c0,0.1-0.1,0.2-0.1,0.4c0,0.2,0,0.4-0.1,0.6
		c0,0.1,0,0.3-0.1,0.4c0,0.2-0.1,0.4-0.1,0.6l-0.1,0.3c0,0.2-0.1,0.4-0.1,0.6c0,0.2-0.1,0.4-0.1,0.5c0,0.2-0.1,0.5-0.1,0.7
		c0,0.2-0.1,0.5-0.1,0.7c0,0.2-0.1,0.5-0.1,0.7c0,0.3-0.1,0.5-0.1,0.8c0,0.2-0.1,0.4-0.1,0.6c0,0.3-0.1,0.6-0.2,1
		c-0.1,0.4-0.1,0.7-0.2,1.1c0,0.2-0.1,0.5-0.1,0.7c0,0.2-0.1,0.4-0.1,0.6c-0.1,0.3-0.1,0.6-0.2,0.9c0,0.3-0.1,0.6-0.1,0.9l-0.1,0.5
		c0,0,0,0.1,0,0.1h0.5c0.5-1,0.9-2,1.4-2.8C347.1,495.4,347.4,494.7,347.8,494.1z"/>
	<path class="st5" d="M337.3,498.2c0-0.3-0.1-0.6-0.1-0.9c0-0.3-0.1-0.6-0.2-0.9c0-0.2-0.1-0.4-0.1-0.6c0-0.2-0.1-0.5-0.1-0.7
		c-0.1-0.4-0.1-0.7-0.2-1.1c-0.1-0.3-0.1-0.6-0.2-0.9c0-0.2-0.1-0.4-0.1-0.6c0-0.3-0.1-0.5-0.1-0.8c0-0.2-0.1-0.5-0.1-0.7
		c0-0.2-0.1-0.5-0.1-0.7c0-0.2-0.1-0.5-0.1-0.7c0-0.2-0.1-0.4-0.1-0.5c0-0.2-0.1-0.4-0.1-0.6l-0.1-0.3c0-0.2-0.1-0.4-0.1-0.5
		c0-0.1,0-0.3-0.1-0.4c0-0.2-0.1-0.4-0.1-0.6c0-0.1,0-0.3-0.1-0.4c0-0.2-0.1-0.4-0.1-0.5c0-0.4,0-0.7-0.1-1
		c-0.1-0.4-0.1-0.8-0.2-1.2c0-0.2,0-0.3,0-0.5c0-0.3-0.1-0.6-0.1-0.9c0-0.5,0-0.9-0.1-1.4c0-0.1,0-0.1,0-0.2h-5.6
		c-0.1,1.6,0.3,3.1,0.8,4.4c0.4,1.2,1,2.3,1.5,3.2c0.2,0.4,0.4,0.9,0.7,1.3c0.2,0.3,0.3,0.7,0.5,1c0.6,1.2,1.3,2.5,2,3.7
		c0.3,0.6,0.7,1.3,1,1.9c0.4,0.8,0.9,1.8,1.4,2.8h0.5c0,0,0-0.1,0-0.1L337.3,498.2z"/>
	<path class="st5" d="M343.9,480.4h-5.5c0.2,4.1,0.9,8.1,1.6,12.1c0.4,2.1,0.8,4.2,1.1,6.3h0c0.3-2.1,0.7-4.2,1.1-6.3
		C342.9,488.5,343.7,484.5,343.9,480.4z"/>
	<path class="st3" d="M345,498.2c0-0.3,0.1-0.6,0.1-0.9c0-0.3,0.1-0.6,0.2-0.9c0-0.2,0.1-0.4,0.1-0.6c0-0.2,0.1-0.5,0.1-0.7
		c0.1-0.4,0.1-0.7,0.2-1.1c0.1-0.3,0.1-0.6,0.2-1c0-0.2,0.1-0.4,0.1-0.6c0-0.3,0.1-0.5,0.1-0.8c0-0.2,0.1-0.5,0.1-0.7
		c0-0.2,0.1-0.5,0.1-0.7c0-0.2,0.1-0.5,0.1-0.7c0-0.2,0.1-0.4,0.1-0.5c0-0.2,0.1-0.4,0.1-0.6l0.1-0.3c0-0.2,0.1-0.4,0.1-0.6
		c0-0.1,0-0.3,0.1-0.4c0-0.2,0.1-0.4,0.1-0.6c0-0.1,0-0.3,0.1-0.4c0-0.2,0.1-0.4,0.1-0.5c0-0.4,0-0.7,0.1-1c0.1-0.4,0.1-0.8,0.2-1.2
		c0-0.2,0-0.3,0-0.5c0-0.3,0.1-0.6,0.1-0.9c0-0.5,0-0.9,0.1-1.4c0-0.1,0-0.1,0-0.2h-3.7c-0.2,4.1-0.9,8.1-1.6,12.1
		c-0.4,2.1-0.8,4.2-1.1,6.3h3.7c0,0,0-0.1,0-0.1L345,498.2z"/>
	<path class="st3" d="M335.5,496c-0.3-0.6-0.7-1.3-1-1.9c-0.7-1.2-1.3-2.5-2-3.7c-0.2-0.3-0.3-0.7-0.5-1c-0.2-0.4-0.4-0.9-0.7-1.3
		c-0.5-0.9-1-2-1.5-3.2c-0.5-1.3-0.9-2.8-0.8-4.4h-3.5c-0.1,1.6,0.2,3.2,0.6,4.7c0.9,3.1,2.6,6,4.3,8.9c0.4,0.6,0.7,1.3,1.1,1.9
		c0.5,0.9,1,1.9,1.5,2.9h3.8C336.5,497.8,336,496.9,335.5,496z"/>
	<path class="st3" d="M338.4,480.4h-3.7c0,0.1,0,0.1,0,0.2c0.1,0.4,0.1,0.9,0.1,1.4c0,0.3,0,0.6,0.1,0.9c0,0.2,0,0.3,0,0.5
		c0,0.4,0.1,0.8,0.2,1.2c0.1,0.3,0.1,0.6,0.1,1c0,0.2,0,0.4,0.1,0.5c0,0.1,0.1,0.2,0.1,0.4c0,0.2,0,0.4,0.1,0.6c0,0.1,0,0.3,0.1,0.4
		c0,0.2,0.1,0.4,0.1,0.5l0.1,0.3c0,0.2,0.1,0.4,0.1,0.6c0,0.2,0.1,0.4,0.1,0.5c0,0.2,0.1,0.5,0.1,0.7c0,0.2,0.1,0.5,0.1,0.7
		c0,0.2,0.1,0.5,0.1,0.7c0,0.3,0.1,0.5,0.1,0.8c0,0.2,0.1,0.4,0.1,0.6c0,0.3,0.1,0.6,0.2,0.9c0.1,0.4,0.1,0.7,0.2,1.1
		c0,0.2,0.1,0.5,0.1,0.7c0,0.2,0.1,0.4,0.1,0.6c0.1,0.3,0.1,0.6,0.2,0.9c0,0.3,0.1,0.6,0.1,0.9l0.1,0.5c0,0,0,0.1,0,0.1h3.7
		c-0.3-2.1-0.7-4.2-1.1-6.3C339.3,488.5,338.6,484.5,338.4,480.4z"/>
	<path class="st3" d="M352.3,484.8c-0.4,1.2-1,2.3-1.5,3.2c-0.2,0.4-0.4,0.9-0.7,1.3c-0.2,0.3-0.3,0.7-0.5,1c-0.6,1.2-1.3,2.5-2,3.7
		c-0.3,0.6-0.7,1.3-1,1.9c-0.4,0.8-0.9,1.8-1.4,2.8h3.8c0.5-1,1-2,1.5-2.9c0.4-0.6,0.7-1.3,1.1-1.9c1.7-2.9,3.4-5.8,4.3-8.9
		c0.4-1.5,0.7-3.1,0.6-4.7h-3.5C353.2,482,352.8,483.5,352.3,484.8z"/>
	<path class="st1" d="M329.1,479.9c0.3-2.1,1.2-3.9,2.8-5.4c0.9-0.8,2-1.6,3.5-2.2c-0.1,0.3-0.1,0.6-0.2,0.9
		c-0.1,0.4-0.2,0.7-0.2,1.1c-0.1,0.6-0.2,1.2-0.2,1.7c-0.1,1-0.1,1.9,0,2.8c0,0.2,0,0.4,0,0.6c0,0.4,0,0.7,0,1.1h3.7
		c-0.1-2.6,0-5.1,0.4-7.7c0.1-0.5,0.2-1,0.6-1.3c0.4-0.2,3-0.2,3.4,0c0.4,0.3,0.5,0.8,0.6,1.3c0.5,2.5,0.6,5.1,0.4,7.7h3.7
		c0-0.4,0-0.7,0-1.1c0-0.2,0-0.4,0-0.6c0-0.9,0.1-1.8,0-2.8c-0.1-0.5-0.1-1.1-0.2-1.7c-0.1-0.4-0.1-0.7-0.2-1.1
		c-0.1-0.3-0.1-0.6-0.2-0.9c1.4,0.6,2.6,1.4,3.5,2.2c1.6,1.5,2.5,3.3,2.8,5.4c0,0.2,0,0.4,0,0.6h3.5c-0.2-4.5-2.8-9-9.8-11.1l-0.1,0
		c-0.3-0.1-0.7-0.2-0.9-0.3c-0.2-0.1-0.3-0.3-0.5-0.6l0-0.1c-0.4-0.7-1.6-2.3-3.8-2.6c-0.1-0.1-0.3,0-0.3,0c-0.1,0-0.2,0-0.4,0
		c-2.2,0.3-3.4,1.9-3.8,2.6l0,0.1c-0.1,0.2-0.3,0.4-0.5,0.6c-0.2,0.1-0.6,0.2-0.9,0.3l-0.1,0c-7,2.1-9.6,6.6-9.8,11.1h3.5
		C329.1,480.2,329.1,480.1,329.1,479.9z"/>
	<path class="st1" d="M341.1,498.9c0,0,0-0.1,0-0.1h0C341.1,498.9,341.1,498.9,341.1,498.9z"/>
	<path class="st4" d="M349.1,498.8h-3.8c-0.2,0.4-0.3,0.7-0.5,1.1c-0.1,0.2-0.1,0.3-0.2,0.5c0,0,0,0,0,0c0-0.2,0-0.5,0.1-0.9
		c0.1-0.2,0.1-0.5,0.1-0.7h-3.7c0,0,0,0.1,0,0.1c0,0,0-0.1,0-0.1h-3.7c0,0.2,0.1,0.4,0.1,0.7c0.1,0.4,0.1,0.6,0.1,0.9c0,0,0,0,0,0
		c-0.1-0.2-0.1-0.3-0.2-0.5c-0.2-0.4-0.3-0.7-0.5-1.1h-3.8c1.2,2.6,2.2,5.2,2.2,7.9c0,0.1,0.1,8,0.1,8h11.5v-8.4
		C347.1,503.8,348,501.3,349.1,498.8z"/>
	<linearGradient id="SVGID_1_" gradientUnits="userSpaceOnUse" x1="341.0584" y1="501.1084" x2="341.1992" y2="495.9675">
		<stop  offset="0" style="stop-color:#363334;stop-opacity:0"/>
		<stop  offset="1" style="stop-color:#000000"/>
	</linearGradient>
	<path class="st6" d="M344.8,499.9c-0.1,0.2-0.1,0.3-0.2,0.5c0,0,0,0,0,0c0-0.2,0-0.5,0.1-0.9c0.1-0.2,0.1-0.5,0.1-0.7h-3.7
		c0,0,0,0.1,0,0.1c0,0,0-0.1,0-0.1h-3.7c0,0.2,0.1,0.4,0.1,0.7c0.1,0.4,0.1,0.6,0.1,0.9c0,0,0,0,0,0c-0.1-0.2-0.1-0.3-0.2-0.5
		c-0.2-0.4-0.3-0.7-0.5-1.1h-3.8c0.4,0.8,0.7,1.6,1,2.4h13.9c0.3-0.8,0.7-1.6,1-2.4h-3.8C345.2,499.2,345,499.5,344.8,499.9z"/>
	<linearGradient id="SVGID_2_" gradientUnits="userSpaceOnUse" x1="345.5868" y1="482.0286" x2="345.7745" y2="477.8032">
		<stop  offset="0" style="stop-color:#363334;stop-opacity:0"/>
		<stop  offset="1" style="stop-color:#000000"/>
	</linearGradient>
	<path class="st7" d="M347.4,482.7c0-0.2,0.1-0.4,0-0.7c0-0.5,0-0.9,0.1-1.4c0-0.1,0-0.1,0-0.2h-3.7c0,0.8-0.1,1.5-0.2,2.3H347.4z"
		/>
	<linearGradient id="SVGID_3_" gradientUnits="userSpaceOnUse" x1="327.487" y1="481.2242" x2="327.6748" y2="476.9987">
		<stop  offset="0" style="stop-color:#363334;stop-opacity:0"/>
		<stop  offset="1" style="stop-color:#000000"/>
	</linearGradient>
	<path class="st8" d="M329.1,480.4h-3.5c0,0.8,0,1.5,0.1,2.3h3.6C329.1,482,329.1,481.2,329.1,480.4z"/>
	<linearGradient id="SVGID_4_" gradientUnits="userSpaceOnUse" x1="336.6309" y1="481.6306" x2="336.8187" y2="477.4052">
		<stop  offset="0" style="stop-color:#363334;stop-opacity:0"/>
		<stop  offset="1" style="stop-color:#000000"/>
	</linearGradient>
	<path class="st9" d="M334.8,482c0,0.2,0,0.4,0,0.7h3.7c-0.1-0.8-0.1-1.5-0.2-2.3h-3.7c0,0.1,0,0.1,0,0.2
		C334.8,481.1,334.8,481.6,334.8,482z"/>
	<linearGradient id="SVGID_5_" gradientUnits="userSpaceOnUse" x1="354.7556" y1="482.4361" x2="354.9435" y2="478.2107">
		<stop  offset="0" style="stop-color:#363334;stop-opacity:0"/>
		<stop  offset="1" style="stop-color:#000000"/>
	</linearGradient>
	<path class="st10" d="M352.9,482.7h3.6c0.1-0.8,0.1-1.5,0.1-2.3h-3.5C353.2,481.2,353.1,482,352.9,482.7z"/>
	<g class="st11">
		<linearGradient id="SVGID_6_" gradientUnits="userSpaceOnUse" x1="245.3064" y1="472.3949" x2="262.9395" y2="485.2578">
			<stop  offset="0" style="stop-color:#363334;stop-opacity:0"/>
			<stop  offset="1" style="stop-color:#000000"/>
		</linearGradient>
		<path class="st12" d="M253.4,480.4c-1.3-5.5-5.8-9.8-11.5-10.7v2.1C249.9,472.1,253.4,480.4,253.4,480.4z"/>
	</g>
	<g class="st11">
		<linearGradient id="SVGID_7_" gradientUnits="userSpaceOnUse" x1="245.3064" y1="490.7662" x2="262.9395" y2="503.629">
			<stop  offset="0" style="stop-color:#363334;stop-opacity:0"/>
			<stop  offset="1" style="stop-color:#000000"/>
		</linearGradient>
		<path class="st13" d="M253.4,498.8c-1.3-5.5-5.8-9.8-11.5-10.7v2.1C249.9,490.5,253.4,498.8,253.4,498.8z"/>
	</g>
	<g class="st11">
		<linearGradient id="SVGID_8_" gradientUnits="userSpaceOnUse" x1="245.3064" y1="506.6772" x2="262.9395" y2="519.54">
			<stop  offset="0" style="stop-color:#363334;stop-opacity:0"/>
			<stop  offset="1" style="stop-color:#000000"/>
		</linearGradient>
		<path class="st14" d="M253.4,514.7c-1.3-5.5-5.8-9.8-11.5-10.7v2.1C249.9,506.4,253.4,514.7,253.4,514.7z"/>
	</g>
	<linearGradient id="SVGID_9_" gradientUnits="userSpaceOnUse" x1="341.1654" y1="517.4385" x2="341.1654" y2="511.7312">
		<stop  offset="0" style="stop-color:#363334;stop-opacity:0"/>
		<stop  offset="1" style="stop-color:#000000"/>
	</linearGradient>
	<rect x="335.4" y="514.7" class="st15" width="11.6" height="2.4"/>
</g>
</svg>
